<svg xmlns="http://www.w3.org/2000/svg" width="1674px" height="913px" viewBox="0 0 1674 913" xmlns:xlink="http://www.w3.org/1999/xlink" style="display: block; width: 1674px; height: 913px; overflow: auto;"><rect width="1674px" height="913px" fill="white"/><clipPath id="ygc218_17"><rect x="25" y="25" width="1623.75" height="862.812"/></clipPath><g clip-path="url(#ygc218_17)"><g transform="translate(490 408.5625)" image-rendering="auto" shape-rendering="auto" style="pointer-events: visiblepainted;"><g style="box-sizing: initial;"><g><path fill="none" stroke="rgb(0,0,0)" d="M 364.25,424.9375 L 364.25,-276.5625 L 345.6740006242196,-276.5625" stroke-opacity="1" stroke-width="1" stroke-linecap="butt" stroke-linejoin="miter" stroke-miterlimit="1.45"/><use transform="translate(339.6740006242196 -276.5625)" xlink:href="#ygc218_0"/></g><g><path fill="none" stroke="rgb(0,0,0)" d="M 364.25,424.9375 L 364.25,-198.5625 L 345.6740006242196,-198.5625" stroke-opacity="1" stroke-width="1" stroke-linecap="butt" stroke-linejoin="miter" stroke-miterlimit="1.45"/><use transform="translate(339.6740006242196 -198.5625)" xlink:href="#ygc218_1"/></g><g><path fill="none" stroke="rgb(0,0,0)" d="M 364.25,424.9375 L 364.25,-120.5625 L 345.6740006242196,-120.5625" stroke-opacity="1" stroke-width="1" stroke-linecap="butt" stroke-linejoin="miter" stroke-miterlimit="1.45"/><use transform="translate(339.6740006242196 -120.5625)" xlink:href="#ygc218_2"/></g><g><path fill="none" stroke="rgb(0,0,0)" d="M 1079.75,426.25 L 1079.75,281.125 L 1061.0490006242196,281.125" stroke-opacity="1" stroke-width="1" stroke-linecap="butt" stroke-linejoin="miter" stroke-miterlimit="1.45"/><use transform="translate(1055.0490006242196 281.125)" xlink:href="#ygc218_3"/></g><g><path fill="none" stroke="rgb(0,0,0)" d="M 364.25,424.9375 L 364.25,-354.5625 L 345.6740006242196,-354.5625" stroke-opacity="1" stroke-width="1" stroke-linecap="butt" stroke-linejoin="miter" stroke-miterlimit="1.45"/><use transform="translate(339.6740006242196 -354.5625)" xlink:href="#ygc218_4"/></g><g><path fill="none" stroke="rgb(0,0,0)" d="M 1079.75,426.25 L 1079.75,-22.125 L 1057.3321067811864,-22.125" stroke-opacity="1" stroke-width="1" stroke-linecap="butt" stroke-linejoin="miter" stroke-miterlimit="1.45"/><g transform="translate(1054.3321067811864 -22.125)"><path d="M 0,0 L 5,-5 L 3,0 L 5,5 Z" fill="rgb(0,0,0)" fill-opacity="1" stroke="rgb(0,0,0)" stroke-opacity="1" stroke-width="1" stroke-linecap="butt" stroke-linejoin="miter" stroke-miterlimit="10"/></g></g><g><path fill="none" stroke="rgb(0,0,0)" d="M 1079.75,426.25 L 1079.75,203.125 L 1061.0490006242196,203.125" stroke-opacity="1" stroke-width="1" stroke-linecap="butt" stroke-linejoin="miter" stroke-miterlimit="1.45"/><use transform="translate(1055.0490006242196 203.125)" xlink:href="#ygc218_5"/></g><g><path fill="none" stroke="rgb(0,0,0)" d="M -281.5,424.9375 L -281.5,206.1875 L -304.5759993757804,206.1875" stroke-opacity="1" stroke-width="1" stroke-linecap="butt" stroke-linejoin="miter" stroke-miterlimit="1.45"/><use transform="translate(-310.5759993757804 206.1875)" xlink:href="#ygc218_6"/></g><g><path fill="none" stroke="rgb(0,0,0)" d="M -281.5,424.9375 L -281.5,284.1875 L -304.5759993757804,284.1875" stroke-opacity="1" stroke-width="1" stroke-linecap="butt" stroke-linejoin="miter" stroke-miterlimit="1.45"/><use transform="translate(-310.5759993757804 284.1875)" xlink:href="#ygc218_7"/></g><g><path fill="none" stroke="rgb(0,0,0)" d="M -281.5,424.9375 L -281.5,128.1875 L -304.5759993757804,128.1875" stroke-opacity="1" stroke-width="1" stroke-linecap="butt" stroke-linejoin="miter" stroke-miterlimit="1.45"/><use transform="translate(-310.5759993757804 128.1875)" xlink:href="#ygc218_8"/></g><g><path fill="none" stroke="rgb(0,0,0)" d="M -281.5,424.9375 L -281.5,50.1875 L -281.5,-27.8125 L -304.5759993757804,-27.8125" stroke-opacity="1" stroke-width="1" stroke-linecap="butt" stroke-linejoin="miter" stroke-miterlimit="1.45"/><use transform="translate(-310.5759993757804 -27.8125)" xlink:href="#ygc218_9"/></g><g><path fill="none" stroke="rgb(0,0,0)" d="M -281.5,424.9375 L -281.5,362.1875 L -304.5759993757804,362.1875" stroke-opacity="1" stroke-width="1" stroke-linecap="butt" stroke-linejoin="miter" stroke-miterlimit="1.45"/><use transform="translate(-310.5759993757804 362.1875)" xlink:href="#ygc218_10"/></g><g><path fill="none" stroke="rgb(0,0,0)" d="M 364.25,424.9375 L 364.25,109.0625 L 345.6740006242196,109.0625" stroke-opacity="1" stroke-width="1" stroke-linecap="butt" stroke-linejoin="miter" stroke-miterlimit="1.45"/><use transform="translate(339.6740006242196 109.0625)" xlink:href="#ygc218_2"/></g><g><path fill="none" stroke="rgb(0,0,0)" d="M 364.25,424.9375 L 364.25,187.0625 L 345.6740006242196,187.0625" stroke-opacity="1" stroke-width="1" stroke-linecap="butt" stroke-linejoin="miter" stroke-miterlimit="1.45"/><use transform="translate(339.6740006242196 187.0625)" xlink:href="#ygc218_2"/></g><g><path fill="none" stroke="rgb(0,0,0)" d="M 364.25,424.93750000000006 L 364.25,35.9375 L 364.25,-42.5625 L 345.6740006242196,-42.5625" stroke-opacity="1" stroke-width="1" stroke-linecap="butt" stroke-linejoin="miter" stroke-miterlimit="1.45"/><use transform="translate(339.6740006242196 -42.5625)" xlink:href="#ygc218_2"/></g><g><path fill="none" stroke="rgb(0,0,0)" d="M 364.25,424.9375 L 364.25,266.4375 L 364.25,33.25 L 345.6740006242196,33.25" stroke-opacity="1" stroke-width="1" stroke-linecap="butt" stroke-linejoin="miter" stroke-miterlimit="1.45"/><use transform="translate(339.6740006242196 33.25)" xlink:href="#ygc218_2"/></g><g><path fill="none" stroke="rgb(0,0,0)" d="M 364.25,424.9375 L 364.25,354.25 L 364.25,265.0625 L 345.6740006242196,265.0625" stroke-opacity="1" stroke-width="1" stroke-linecap="butt" stroke-linejoin="miter" stroke-miterlimit="1.45"/><use transform="translate(339.6740006242196 265.0625)" xlink:href="#ygc218_2"/></g><g><path fill="none" stroke="rgb(0,0,0)" d="M 438.25,448.9375 L 659.25,448.9375" stroke-opacity="1" stroke-width="1" stroke-linecap="butt" stroke-linejoin="miter" stroke-miterlimit="1.45"/><use transform="matrix(-1 0 0 -1 659.25 448.9375)" xlink:href="#ygc218_11"/></g><g><path fill="none" stroke="rgb(0,0,0)" d="M 115.375,448.9375 L 290.25,448.9375" stroke-opacity="1" stroke-width="1" stroke-linecap="butt" stroke-linejoin="miter" stroke-miterlimit="1.45"/><use transform="matrix(-1 0 0 -1 290.25 448.9375)" xlink:href="#ygc218_12"/><use transform="matrix(1 0 0 1 115.375 448.9375)" xlink:href="#ygc218_13"/></g><g><path fill="none" stroke="rgb(0,0,0)" d="M 364.25,424.9375 L 364.25,352.3125 L 345.6740006242196,352.3125" stroke-opacity="1" stroke-width="1" stroke-linecap="butt" stroke-linejoin="miter" stroke-miterlimit="1.45"/><use transform="translate(339.6740006242196 352.3125)" xlink:href="#ygc218_2"/></g><g><path fill="none" stroke="rgb(0,0,0)" d="M 1079.75,426.25 L 1079.75,125.125 L 1057.3321067811864,125.125" stroke-opacity="1" stroke-width="1" stroke-linecap="butt" stroke-linejoin="miter" stroke-miterlimit="1.45"/><g transform="translate(1054.3321067811864 125.125)"><path d="M 0,0 L 5,-5 L 3,0 L 5,5 Z" fill="rgb(0,0,0)" fill-opacity="1" stroke="rgb(0,0,0)" stroke-opacity="1" stroke-width="1" stroke-linecap="butt" stroke-linejoin="miter" stroke-miterlimit="10"/></g></g><g><path fill="none" stroke="rgb(0,0,0)" d="M 1079.75,426.25 L 1079.75,357.8125 L 1061.0490006242196,357.8125" stroke-opacity="1" stroke-width="1" stroke-linecap="butt" stroke-linejoin="miter" stroke-miterlimit="1.45"/><use transform="translate(1055.0490006242196 357.8125)" xlink:href="#ygc218_2"/></g><g><path fill="none" stroke="rgb(0,0,0)" d="M 1079.75,426.25 L 1079.75,51.5 L 1061.0490006242196,51.5" stroke-opacity="1" stroke-width="1" stroke-linecap="butt" stroke-linejoin="miter" stroke-miterlimit="1.45"/><use transform="translate(1055.0490006242196 51.5)" xlink:href="#ygc218_2"/></g><g><path fill="none" stroke="rgb(0,0,0)" d="M 807.25,448.9439597120149 L 1005.75,450.2435402879851" stroke-opacity="1" stroke-width="1" stroke-linecap="butt" stroke-linejoin="miter" stroke-miterlimit="1.45"/><use transform="matrix(-0.9999785690489602 -0.006546865111952431 0.006546865111952431 -0.9999785690489602 1005.75 450.2435402879851)" xlink:href="#ygc218_14"/></g><g><path fill="none" stroke="rgb(0,0,0)" d="M -281.5,424.9375 L -281.5,50.1875 L -308.29289321881345,50.1875" stroke-opacity="1" stroke-width="1" stroke-linecap="butt" stroke-linejoin="miter" stroke-miterlimit="1.45"/><g transform="translate(-311.29289321881345 50.1875)"><path d="M 0,0 L 5,-5 L 3,0 L 5,5 Z" fill="rgb(0,0,0)" fill-opacity="1" stroke="rgb(0,0,0)" stroke-opacity="1" stroke-width="1" stroke-linecap="butt" stroke-linejoin="miter" stroke-miterlimit="10"/></g></g><g><path fill="none" stroke="rgb(0,0,0)" d="M -207.5,448.9375 L -32.625,448.9375" stroke-opacity="1" stroke-width="1" stroke-linecap="butt" stroke-linejoin="miter" stroke-miterlimit="1.45"/><use transform="matrix(-1 0 0 -1 -32.625 448.9375)" xlink:href="#ygc218_15"/><use transform="matrix(1 0 0 1 -207.5 448.9375)" xlink:href="#ygc218_16"/></g><g><path fill="none" stroke="rgb(0,0,0)" d="M 733.25,424.9375 L 733.25,276.9375 L 710.1740006242196,276.9375" stroke-opacity="1" stroke-width="1" stroke-linecap="butt" stroke-linejoin="miter" stroke-miterlimit="1.45"/><use transform="translate(704.1740006242196 276.9375)" xlink:href="#ygc218_6"/></g><g><path fill="none" stroke="rgb(0,0,0)" d="M 733.25,424.9375 L 733.25,354.9375 L 710.1740006242196,354.9375" stroke-opacity="1" stroke-width="1" stroke-linecap="butt" stroke-linejoin="miter" stroke-miterlimit="1.45"/><use transform="translate(704.1740006242196 354.9375)" xlink:href="#ygc218_7"/></g><g><path fill="none" stroke="rgb(0,0,0)" d="M 733.25,424.9375 L 733.25,198.9375 L 710.1740006242196,198.9375" stroke-opacity="1" stroke-width="1" stroke-linecap="butt" stroke-linejoin="miter" stroke-miterlimit="1.45"/><use transform="translate(704.1740006242196 198.9375)" xlink:href="#ygc218_8"/></g><g><path fill="none" stroke="rgb(0,0,0)" d="M 733.25,424.9375 L 733.25,120.9375 L 733.25,42.9375 L 710.1740006242196,42.9375" stroke-opacity="1" stroke-width="1" stroke-linecap="butt" stroke-linejoin="miter" stroke-miterlimit="1.45"/><use transform="translate(704.1740006242196 42.9375)" xlink:href="#ygc218_9"/></g><g><path fill="none" stroke="rgb(0,0,0)" d="M 733.25,424.9375 L 733.25,120.9375 L 706.4571067811866,120.9375" stroke-opacity="1" stroke-width="1" stroke-linecap="butt" stroke-linejoin="miter" stroke-miterlimit="1.45"/><g transform="translate(703.4571067811866 120.9375)"><path d="M 0,0 L 5,-5 L 3,0 L 5,5 Z" fill="rgb(0,0,0)" fill-opacity="1" stroke="rgb(0,0,0)" stroke-opacity="1" stroke-width="1" stroke-linecap="butt" stroke-linejoin="miter" stroke-miterlimit="10"/></g></g><g><path fill="none" stroke="rgb(0,0,0)" d="M 41.375,424.9375 L 41.375,64.3125 L 9.049000624219588,64.3125" stroke-opacity="1" stroke-width="1" stroke-linecap="butt" stroke-linejoin="miter" stroke-miterlimit="1.45"/><use transform="translate(3.0490006242195875 64.3125)" xlink:href="#ygc218_2"/></g><g><path fill="none" stroke="rgb(0,0,0)" d="M 41.375,424.9375 L 41.375,142.3125 L 9.049000624219595,142.3125" stroke-opacity="1" stroke-width="1" stroke-linecap="butt" stroke-linejoin="miter" stroke-miterlimit="1.45"/><use transform="translate(3.0490006242195946 142.3125)" xlink:href="#ygc218_2"/></g><g><path fill="none" stroke="rgb(0,0,0)" d="M 41.375,424.9375 L 41.375,279.8125 L 9.049000624219595,279.8125" stroke-opacity="1" stroke-width="1" stroke-linecap="butt" stroke-linejoin="miter" stroke-miterlimit="1.45"/><use transform="translate(3.0490006242195946 279.8125)" xlink:href="#ygc218_2"/></g><g><path fill="none" stroke="rgb(0,0,0)" d="M 41.375,424.9375 L 41.375,352.3125 L 9.049000624219595,352.3125" stroke-opacity="1" stroke-width="1" stroke-linecap="butt" stroke-linejoin="miter" stroke-miterlimit="1.45"/><use transform="translate(3.0490006242195946 352.3125)" xlink:href="#ygc218_2"/></g><g><path fill="none" stroke="rgb(0,0,0)" d="M 41.375,424.9375 L 41.375,211.0625 L 9.049000624219595,211.0625" stroke-opacity="1" stroke-width="1" stroke-linecap="butt" stroke-linejoin="miter" stroke-miterlimit="1.45"/><use transform="translate(3.0490006242195946 211.0625)" xlink:href="#ygc218_2"/></g><g><path d="M 264.25,-252.5625 C 223.38092851252125,-252.5625 190.25,-263.30766600406093 190.25,-276.5625 C 190.25,-289.81733399593907 223.38092851252125,-300.5625 264.25,-300.5625 C 305.1190714874788,-300.5625 338.25,-289.81733399593907 338.25,-276.5625 C 338.25,-263.30766600406093 305.1190714874788,-252.5625 264.25,-252.5625 Z" stroke="rgb(0,0,0)" stroke-opacity="1" stroke-width="1" stroke-linecap="butt" stroke-linejoin="miter" stroke-miterlimit="1.45" fill="none"/></g><g transform="translate(251.25 -283.5625)"><text font-family="Arial" font-size="12px" font-style="normal" font-weight="normal" text-decoration="none" text-anchor="middle" fill="rgb(0,0,0)" fill-opacity="1" dy="0.9166666666666666em" transform="translate(13 0)">login</text></g><g><path d="M 264.25,-174.5625 C 223.38092851252125,-174.5625 190.25,-185.30766600406093 190.25,-198.5625 C 190.25,-211.81733399593907 223.38092851252125,-222.5625 264.25,-222.5625 C 305.1190714874788,-222.5625 338.25,-211.81733399593907 338.25,-198.5625 C 338.25,-185.30766600406093 305.1190714874788,-174.5625 264.25,-174.5625 Z" stroke="rgb(0,0,0)" stroke-opacity="1" stroke-width="1" stroke-linecap="butt" stroke-linejoin="miter" stroke-miterlimit="1.45" fill="none"/></g><g transform="translate(235.6591796875 -205.546875)"><text font-family="Arial" font-size="12px" font-style="normal" font-weight="normal" text-decoration="none" text-anchor="middle" fill="rgb(0,0,0)" fill-opacity="1" dy="0.9166666666666666em" transform="translate(28 2)">password</text></g><g><path d="M 264.25,-96.5625 C 223.38092851252125,-96.5625 190.25,-107.30766600406095 190.25,-120.5625 C 190.25,-133.81733399593907 223.38092851252125,-144.5625 264.25,-144.5625 C 305.1190714874788,-144.5625 338.25,-133.81733399593907 338.25,-120.5625 C 338.25,-107.30766600406095 305.1190714874788,-96.5625 264.25,-96.5625 Z" stroke="rgb(0,0,0)" stroke-opacity="1" stroke-width="1" stroke-linecap="butt" stroke-linejoin="miter" stroke-miterlimit="1.45" fill="none"/></g><g transform="translate(249.75 -127.5625)"><text font-family="Arial" font-size="12px" font-style="normal" font-weight="normal" text-decoration="none" text-anchor="middle" fill="rgb(0,0,0)" fill-opacity="1" dy="0.9166666666666666em" transform="translate(14.5 0)">email</text></g><g><path d="M 979.625,305.125 C 938.7559285125212,305.125 905.625,294.37983399593907 905.625,281.125 C 905.625,267.87016600406093 938.7559285125212,257.125 979.625,257.125 C 1020.4940714874788,257.125 1053.625,267.87016600406093 1053.625,281.125 C 1053.625,294.37983399593907 1020.4940714874788,305.125 979.625,305.125 Z" stroke="rgb(0,0,0)" stroke-opacity="1" stroke-width="1" stroke-linecap="butt" stroke-linejoin="miter" stroke-miterlimit="1.45" fill="none"/></g><g transform="translate(962.609375 274.140625)"><text font-family="Arial" font-size="12px" font-style="normal" font-weight="normal" text-decoration="none" text-anchor="middle" fill="rgb(0,0,0)" fill-opacity="1" dy="0.9166666666666666em" transform="translate(18.5 2)">image</text></g><g><path d="M 264.25,-330.5625 C 223.38092851252125,-330.5625 190.25,-341.30766600406093 190.25,-354.5625 C 190.25,-367.81733399593907 223.38092851252125,-378.5625 264.25,-378.5625 C 305.1190714874788,-378.5625 338.25,-367.81733399593907 338.25,-354.5625 C 338.25,-341.30766600406093 305.1190714874788,-330.5625 264.25,-330.5625 Z" stroke="rgb(0,0,0)" stroke-opacity="1" stroke-width="1" stroke-linecap="butt" stroke-linejoin="miter" stroke-miterlimit="1.45" fill="none"/></g><g transform="translate(258.7744140625 -361.546875)"><text font-family="Arial" font-size="12px" font-style="normal" font-weight="normal" text-decoration="none" text-anchor="middle" fill="rgb(0,0,0)" fill-opacity="1" dy="0.9166666666666666em" transform="translate(7 2)">id</text></g><g><path d="M 979.625,1.875 C 938.7559285125212,1.875 905.625,-8.870166004060945 905.625,-22.125 C 905.625,-35.37983399593905 938.7559285125212,-46.125 979.625,-46.125 C 1020.4940714874788,-46.125 1053.625,-35.37983399593905 1053.625,-22.125 C 1053.625,-8.870166004060945 1020.4940714874788,1.875 979.625,1.875 Z" stroke="rgb(0,0,0)" stroke-opacity="1" stroke-width="1" stroke-linecap="butt" stroke-linejoin="miter" stroke-miterlimit="1.45" fill="none"/></g><g transform="translate(974.1494140625 -29.109375)"><text font-family="Arial" font-size="12px" font-style="normal" font-weight="normal" text-decoration="none" text-anchor="middle" fill="rgb(0,0,0)" fill-opacity="1" dy="0.9166666666666666em" transform="translate(7 2)">id</text></g><g><path d="M 979.625,227.125 C 938.7559285125212,227.125 905.625,216.37983399593907 905.625,203.125 C 905.625,189.87016600406093 938.7559285125212,179.125 979.625,179.125 C 1020.4940714874788,179.125 1053.625,189.87016600406093 1053.625,203.125 C 1053.625,216.37983399593907 1020.4940714874788,227.125 979.625,227.125 Z" stroke="rgb(0,0,0)" stroke-opacity="1" stroke-width="1" stroke-linecap="butt" stroke-linejoin="miter" stroke-miterlimit="1.45" fill="none"/></g><g transform="translate(961.0859375 196.140625)"><text font-family="Arial" font-size="12px" font-style="normal" font-weight="normal" text-decoration="none" text-anchor="middle" fill="rgb(0,0,0)" fill-opacity="1" dy="0.9166666666666666em" transform="translate(11.5 2)">title</text></g><g><path d="M -386,230.1875 C -426.8690714874788,230.1875 -460,219.44233399593907 -460,206.1875 C -460,192.93266600406093 -426.8690714874788,182.1875 -386,182.1875 C -345.1309285125212,182.1875 -312,192.93266600406093 -312,206.1875 C -312,219.44233399593907 -345.1309285125212,230.1875 -386,230.1875 Z" stroke="rgb(0,0,0)" stroke-opacity="1" stroke-width="1" stroke-linecap="butt" stroke-linejoin="miter" stroke-miterlimit="1.45" fill="none"/></g><g transform="translate(-414.5234375 199.203125)"><text font-family="Arial" font-size="12px" font-style="normal" font-weight="normal" text-decoration="none" text-anchor="middle" fill="rgb(0,0,0)" fill-opacity="1" dy="0.9166666666666666em" transform="translate(27.5 2)">lastName</text></g><g><path d="M -386,308.1875 C -426.8690714874788,308.1875 -460,297.44233399593907 -460,284.1875 C -460,270.93266600406093 -426.8690714874788,260.1875 -386,260.1875 C -345.1309285125212,260.1875 -312,270.93266600406093 -312,284.1875 C -312,297.44233399593907 -345.1309285125212,308.1875 -386,308.1875 Z" stroke="rgb(0,0,0)" stroke-opacity="1" stroke-width="1" stroke-linecap="butt" stroke-linejoin="miter" stroke-miterlimit="1.45" fill="none"/></g><g transform="translate(-408.9453125 277.203125)"><text font-family="Arial" font-size="12px" font-style="normal" font-weight="normal" text-decoration="none" text-anchor="middle" fill="rgb(0,0,0)" fill-opacity="1" dy="0.9166666666666666em" transform="translate(22 2)">country</text></g><g><path d="M -386,152.1875 C -426.8690714874788,152.1875 -460,141.44233399593907 -460,128.1875 C -460,114.93266600406095 -426.8690714874788,104.1875 -386,104.1875 C -345.1309285125212,104.1875 -312,114.93266600406095 -312,128.1875 C -312,141.44233399593907 -345.1309285125212,152.1875 -386,152.1875 Z" stroke="rgb(0,0,0)" stroke-opacity="1" stroke-width="1" stroke-linecap="butt" stroke-linejoin="miter" stroke-miterlimit="1.45" fill="none"/></g><g transform="translate(-415.42578125 121.203125)"><text font-family="Arial" font-size="12px" font-style="normal" font-weight="normal" text-decoration="none" text-anchor="middle" fill="rgb(0,0,0)" fill-opacity="1" dy="0.9166666666666666em" transform="translate(28 2)">firtsName</text></g><g><path d="M -386,-3.8125 C -426.8690714874788,-3.8125 -460,-14.557666004060945 -460,-27.8125 C -460,-41.06733399593905 -426.8690714874788,-51.8125 -386,-51.8125 C -345.1309285125212,-51.8125 -312,-41.06733399593905 -312,-27.8125 C -312,-14.557666004060945 -345.1309285125212,-3.8125 -386,-3.8125 Z" stroke="rgb(0,0,0)" stroke-opacity="1" stroke-width="1" stroke-linecap="butt" stroke-linejoin="miter" stroke-miterlimit="1.45" fill="none"/></g><g transform="translate(-391.4755859375 -34.79687500000001)"><text font-family="Arial" font-size="12px" font-style="normal" font-weight="normal" text-decoration="none" text-anchor="middle" fill="rgb(0,0,0)" fill-opacity="1" dy="0.9166666666666666em" transform="translate(7 2)">id</text></g><g><path d="M -386,386.1875 C -426.8690714874788,386.1875 -460,375.44233399593907 -460,362.1875 C -460,348.93266600406093 -426.8690714874788,338.1875 -386,338.1875 C -345.1309285125212,338.1875 -312,348.93266600406093 -312,362.1875 C -312,375.44233399593907 -345.1309285125212,386.1875 -386,386.1875 Z" stroke="rgb(0,0,0)" stroke-opacity="1" stroke-width="1" stroke-linecap="butt" stroke-linejoin="miter" stroke-miterlimit="1.45" fill="none"/></g><g transform="translate(-396 355.1875)"><text font-family="Arial" font-size="12px" font-style="normal" font-weight="normal" text-decoration="none" text-anchor="middle" fill="rgb(0,0,0)" fill-opacity="1" dy="0.9166666666666666em" transform="translate(10 0)">info</text></g><g><path d="M 290.25,424.9375 L 438.25,424.9375 L 438.25,472.9375 L 290.25,472.9375 Z" stroke="rgb(0,0,0)" stroke-opacity="1" stroke-width="1" stroke-linecap="butt" stroke-linejoin="miter" stroke-miterlimit="1.45" fill="none"/></g><g transform="translate(350.57421875 441.953125)"><text font-family="Arial" font-size="12px" font-style="normal" font-weight="normal" text-decoration="none" text-anchor="middle" fill="rgb(0,0,0)" fill-opacity="1" dy="0.9166666666666666em" transform="translate(16 2)">Artist</text></g><g><path d="M 1005.75,426.25 L 1153.75,426.25 L 1153.75,474.25 L 1005.75,474.25 Z" stroke="rgb(0,0,0)" stroke-opacity="1" stroke-width="1" stroke-linecap="butt" stroke-linejoin="miter" stroke-miterlimit="1.45" fill="none"/></g><g transform="translate(1062.8720703125 443.265625)"><text font-family="Arial" font-size="12px" font-style="normal" font-weight="normal" text-decoration="none" text-anchor="middle" fill="rgb(0,0,0)" fill-opacity="1" dy="0.9166666666666666em" transform="translate(24 2)">ArtWork</text></g><g><path d="M -355.5,424.9375 L -207.5,424.9375 L -207.5,472.9375 L -355.5,472.9375 Z" stroke="rgb(0,0,0)" stroke-opacity="1" stroke-width="1" stroke-linecap="butt" stroke-linejoin="miter" stroke-miterlimit="1.45" fill="none"/></g><g transform="translate(-300.1708984375 441.953125)"><text font-family="Arial" font-size="12px" font-style="normal" font-weight="normal" text-decoration="none" text-anchor="middle" fill="rgb(0,0,0)" fill-opacity="1" dy="0.9166666666666666em" transform="translate(27.5 2)">Employer</text></g><g><path d="M 979.625,149.125 C 938.7559285125212,149.125 905.625,138.37983399593907 905.625,125.125 C 905.625,111.87016600406095 938.7559285125212,101.125 979.625,101.125 C 1020.4940714874788,101.125 1053.625,111.87016600406095 1053.625,125.125 C 1053.625,138.37983399593907 1020.4940714874788,149.125 979.625,149.125 Z" stroke="rgb(0,0,0)" stroke-opacity="1" stroke-width="1" stroke-linecap="butt" stroke-linejoin="miter" stroke-miterlimit="1.45" fill="none"/></g><g transform="translate(946.2646484375 118.140625)"><text font-family="Arial" font-size="12px" font-style="normal" font-weight="normal" text-decoration="none" text-anchor="middle" fill="rgb(0,0,0)" fill-opacity="1" dy="0.9166666666666666em" transform="translate(31.5 2)">description</text></g><g><path d="M -386,74.1875 C -426.8690714874788,74.1875 -460,63.44233399593905 -460,50.1875 C -460,36.93266600406095 -426.8690714874788,26.1875 -386,26.1875 C -345.1309285125212,26.1875 -312,36.93266600406095 -312,50.1875 C -312,63.44233399593905 -345.1309285125212,74.1875 -386,74.1875 Z" stroke="rgb(0,0,0)" stroke-opacity="1" stroke-width="1" stroke-linecap="butt" stroke-linejoin="miter" stroke-miterlimit="1.45" fill="none"/></g><g transform="translate(-426.5 43.1875)"><text font-family="Arial" font-size="12px" font-style="normal" font-weight="normal" text-decoration="none" text-anchor="middle" fill="rgb(0,0,0)" fill-opacity="1" dy="0.9166666666666666em" transform="translate(40.5 0)">companyName</text></g><g><path d="M 264.25,133.0625 C 223.38092851252125,133.0625 190.25,122.31733399593905 190.25,109.0625 C 190.25,95.80766600406095 223.38092851252125,85.0625 264.25,85.0625 C 305.1190714874788,85.0625 338.25,95.80766600406095 338.25,109.0625 C 338.25,122.31733399593905 305.1190714874788,133.0625 264.25,133.0625 Z" stroke="rgb(0,0,0)" stroke-opacity="1" stroke-width="1" stroke-linecap="butt" stroke-linejoin="miter" stroke-miterlimit="1.45" fill="none"/></g><g transform="translate(254.25 102.0625)"><text font-family="Arial" font-size="12px" font-style="normal" font-weight="normal" text-decoration="none" text-anchor="middle" fill="rgb(0,0,0)" fill-opacity="1" dy="0.9166666666666666em" transform="translate(10 0)">info</text></g><g><path d="M 264.25,211.0625 C 223.38092851252125,211.0625 190.25,200.31733399593907 190.25,187.0625 C 190.25,173.80766600406093 223.38092851252125,163.0625 264.25,163.0625 C 305.1190714874788,163.0625 338.25,173.80766600406093 338.25,187.0625 C 338.25,200.31733399593907 305.1190714874788,211.0625 264.25,211.0625 Z" stroke="rgb(0,0,0)" stroke-opacity="1" stroke-width="1" stroke-linecap="butt" stroke-linejoin="miter" stroke-miterlimit="1.45" fill="none"/></g><g transform="translate(237.25 180.0625)"><text font-family="Arial" font-size="12px" font-style="normal" font-weight="normal" text-decoration="none" text-anchor="middle" fill="rgb(0,0,0)" fill-opacity="1" dy="0.9166666666666666em" transform="translate(27 0)">birth_date</text></g><g><path d="M 264.25,-18.5625 C 223.38092851252125,-18.5625 190.25,-29.307666004060945 190.25,-42.5625 C 190.25,-55.81733399593905 223.38092851252125,-66.5625 264.25,-66.5625 C 305.1190714874788,-66.5625 338.25,-55.81733399593905 338.25,-42.5625 C 338.25,-29.307666004060945 305.1190714874788,-18.5625 264.25,-18.5625 Z" stroke="rgb(0,0,0)" stroke-opacity="1" stroke-width="1" stroke-linecap="butt" stroke-linejoin="miter" stroke-miterlimit="1.45" fill="none"/></g><g transform="translate(234.82421875 -49.546875)"><text font-family="Arial" font-size="12px" font-style="normal" font-weight="normal" text-decoration="none" text-anchor="middle" fill="rgb(0,0,0)" fill-opacity="1" dy="0.9166666666666666em" transform="translate(28 2)">firstName</text></g><g><path d="M 264.25,57.25 C 223.38092851252125,57.25 190.25,46.50483399593905 190.25,33.25 C 190.25,19.995166004060945 223.38092851252125,9.25 264.25,9.25 C 305.1190714874788,9.25 338.25,19.995166004060945 338.25,33.25 C 338.25,46.50483399593905 305.1190714874788,57.25 264.25,57.25 Z" stroke="rgb(0,0,0)" stroke-opacity="1" stroke-width="1" stroke-linecap="butt" stroke-linejoin="miter" stroke-miterlimit="1.45" fill="none"/></g><g transform="translate(234.82421875 26.265625)"><text font-family="Arial" font-size="12px" font-style="normal" font-weight="normal" text-decoration="none" text-anchor="middle" fill="rgb(0,0,0)" fill-opacity="1" dy="0.9166666666666666em" transform="translate(27.5 2)">lastName</text></g><g><path d="M 264.25,289.0625 C 223.38092851252125,289.0625 190.25,278.31733399593907 190.25,265.0625 C 190.25,251.80766600406093 223.38092851252125,241.0625 264.25,241.0625 C 305.1190714874788,241.0625 338.25,251.80766600406093 338.25,265.0625 C 338.25,278.31733399593907 305.1190714874788,289.0625 264.25,289.0625 Z" stroke="rgb(0,0,0)" stroke-opacity="1" stroke-width="1" stroke-linecap="butt" stroke-linejoin="miter" stroke-miterlimit="1.45" fill="none"/></g><g transform="translate(244.25 258.0625)"><text font-family="Arial" font-size="12px" font-style="normal" font-weight="normal" text-decoration="none" text-anchor="middle" fill="rgb(0,0,0)" fill-opacity="1" dy="0.9166666666666666em" transform="translate(20 0)">country</text></g><g><path d="M 979.625,381.8125 C 938.7559285125212,381.8125 905.625,371.06733399593907 905.625,357.8125 C 905.625,344.55766600406093 938.7559285125212,333.8125 979.625,333.8125 C 1020.4940714874788,333.8125 1053.625,344.55766600406093 1053.625,357.8125 C 1053.625,371.06733399593907 1020.4940714874788,381.8125 979.625,381.8125 Z" stroke="rgb(0,0,0)" stroke-opacity="1" stroke-width="1" stroke-linecap="butt" stroke-linejoin="miter" stroke-miterlimit="1.45" fill="none"/></g><g transform="translate(953.125 350.8125)"><text font-family="Arial" font-size="12px" font-style="normal" font-weight="normal" text-decoration="none" text-anchor="middle" fill="rgb(0,0,0)" fill-opacity="1" dy="0.9166666666666666em" transform="translate(26.5 0)">technique</text></g><g><path d="M 628.75,300.9375 C 587.8809285125212,300.9375 554.75,290.19233399593907 554.75,276.9375 C 554.75,263.68266600406093 587.8809285125212,252.9375 628.75,252.9375 C 669.6190714874788,252.9375 702.75,263.68266600406093 702.75,276.9375 C 702.75,290.19233399593907 669.6190714874788,300.9375 628.75,300.9375 Z" stroke="rgb(0,0,0)" stroke-opacity="1" stroke-width="1" stroke-linecap="butt" stroke-linejoin="miter" stroke-miterlimit="1.45" fill="none"/></g><g transform="translate(613.25 269.9375)"><text font-family="Arial" font-size="12px" font-style="normal" font-weight="normal" text-decoration="none" text-anchor="middle" fill="rgb(0,0,0)" fill-opacity="1" dy="0.9166666666666666em" transform="translate(15.5 0)">ganre</text></g><g><path d="M 628.75,378.9375 C 587.8809285125212,378.9375 554.75,368.19233399593907 554.75,354.9375 C 554.75,341.68266600406093 587.8809285125212,330.9375 628.75,330.9375 C 669.6190714874788,330.9375 702.75,341.68266600406093 702.75,354.9375 C 702.75,368.19233399593907 669.6190714874788,378.9375 628.75,378.9375 Z" stroke="rgb(0,0,0)" stroke-opacity="1" stroke-width="1" stroke-linecap="butt" stroke-linejoin="miter" stroke-miterlimit="1.45" fill="none"/></g><g transform="translate(618.75 347.9375)"><text font-family="Arial" font-size="12px" font-style="normal" font-weight="normal" text-decoration="none" text-anchor="middle" fill="rgb(0,0,0)" fill-opacity="1" dy="0.9166666666666666em" transform="translate(10 0)">info</text></g><g><path d="M 628.75,222.9375 C 587.8809285125212,222.9375 554.75,212.19233399593907 554.75,198.9375 C 554.75,185.68266600406093 587.8809285125212,174.9375 628.75,174.9375 C 669.6190714874788,174.9375 702.75,185.68266600406093 702.75,198.9375 C 702.75,212.19233399593907 669.6190714874788,222.9375 628.75,222.9375 Z" stroke="rgb(0,0,0)" stroke-opacity="1" stroke-width="1" stroke-linecap="butt" stroke-linejoin="miter" stroke-miterlimit="1.45" fill="none"/></g><g transform="translate(619.25 191.9375)"><text font-family="Arial" font-size="12px" font-style="normal" font-weight="normal" text-decoration="none" text-anchor="middle" fill="rgb(0,0,0)" fill-opacity="1" dy="0.9166666666666666em" transform="translate(9.5 0)">title</text></g><g><path d="M 628.75,66.9375 C 587.8809285125212,66.9375 554.75,56.19233399593905 554.75,42.9375 C 554.75,29.682666004060945 587.8809285125212,18.9375 628.75,18.9375 C 669.6190714874788,18.9375 702.75,29.682666004060945 702.75,42.9375 C 702.75,56.19233399593905 669.6190714874788,66.9375 628.75,66.9375 Z" stroke="rgb(0,0,0)" stroke-opacity="1" stroke-width="1" stroke-linecap="butt" stroke-linejoin="miter" stroke-miterlimit="1.45" fill="none"/></g><g transform="translate(623.2744140625 35.95312499999999)"><text font-family="Arial" font-size="12px" font-style="normal" font-weight="normal" text-decoration="none" text-anchor="middle" fill="rgb(0,0,0)" fill-opacity="1" dy="0.9166666666666666em" transform="translate(7 2)">id</text></g><g><path d="M 659.25,424.9375 L 807.25,424.9375 L 807.25,472.9375 L 659.25,472.9375 Z" stroke="rgb(0,0,0)" stroke-opacity="1" stroke-width="1" stroke-linecap="butt" stroke-linejoin="miter" stroke-miterlimit="1.45" fill="none"/></g><g transform="translate(710.75 441.9375)"><text font-family="Arial" font-size="12px" font-style="normal" font-weight="normal" text-decoration="none" text-anchor="middle" fill="rgb(0,0,0)" fill-opacity="1" dy="0.9166666666666666em" transform="translate(22.5 0)">Portfolio</text></g><g><path d="M 628.75,144.9375 C 587.8809285125212,144.9375 554.75,134.19233399593907 554.75,120.9375 C 554.75,107.68266600406095 587.8809285125212,96.9375 628.75,96.9375 C 669.6190714874788,96.9375 702.75,107.68266600406095 702.75,120.9375 C 702.75,134.19233399593907 669.6190714874788,144.9375 628.75,144.9375 Z" stroke="rgb(0,0,0)" stroke-opacity="1" stroke-width="1" stroke-linecap="butt" stroke-linejoin="miter" stroke-miterlimit="1.45" fill="none"/></g><g transform="translate(607.25 113.9375)"><text font-family="Arial" font-size="12px" font-style="normal" font-weight="normal" text-decoration="none" text-anchor="middle" fill="rgb(0,0,0)" fill-opacity="1" dy="0.9166666666666666em" transform="translate(21.5 0)">artist_id</text></g><g><path d="M 979.625,75.5 C 938.7559285125212,75.5 905.625,64.75483399593905 905.625,51.5 C 905.625,38.24516600406095 938.7559285125212,27.5 979.625,27.5 C 1020.4940714874788,27.5 1053.625,38.24516600406095 1053.625,51.5 C 1053.625,64.75483399593905 1020.4940714874788,75.5 979.625,75.5 Z" stroke="rgb(0,0,0)" stroke-opacity="1" stroke-width="1" stroke-linecap="butt" stroke-linejoin="miter" stroke-miterlimit="1.45" fill="none"/></g><g transform="translate(946.2646484375 44.515625)"><text font-family="Arial" font-size="12px" font-style="normal" font-weight="normal" text-decoration="none" text-anchor="middle" fill="rgb(0,0,0)" fill-opacity="1" dy="0.9166666666666666em" transform="translate(31.5 2)">portfolio_id</text></g><g><path d="M -72.375,88.3125 C -113.24407148747875,88.3125 -146.375,77.56733399593905 -146.375,64.3125 C -146.375,51.05766600406095 -113.24407148747875,40.3125 -72.375,40.3125 C -31.505928512521244,40.3125 1.625,51.05766600406095 1.625,64.3125 C 1.625,77.56733399593905 -31.505928512521244,88.3125 -72.375,88.3125 Z" stroke="rgb(0,0,0)" stroke-opacity="1" stroke-width="1" stroke-linecap="butt" stroke-linejoin="miter" stroke-miterlimit="1.45" fill="none"/></g><g transform="translate(-77.375 57.3125)"><text font-family="Arial" font-size="12px" font-style="normal" font-weight="normal" text-decoration="none" text-anchor="middle" fill="rgb(0,0,0)" fill-opacity="1" dy="0.9166666666666666em" transform="translate(5 0)">id</text></g><g><path d="M -72.375,166.3125 C -113.24407148747875,166.3125 -146.375,155.56733399593907 -146.375,142.3125 C -146.375,129.05766600406093 -113.24407148747875,118.3125 -72.375,118.3125 C -31.505928512521244,118.3125 1.625,129.05766600406093 1.625,142.3125 C 1.625,155.56733399593907 -31.505928512521244,166.3125 -72.375,166.3125 Z" stroke="rgb(0,0,0)" stroke-opacity="1" stroke-width="1" stroke-linecap="butt" stroke-linejoin="miter" stroke-miterlimit="1.45" fill="none"/></g><g transform="translate(-105.375 135.3125)"><text font-family="Arial" font-size="12px" font-style="normal" font-weight="normal" text-decoration="none" text-anchor="middle" fill="rgb(0,0,0)" fill-opacity="1" dy="0.9166666666666666em" transform="translate(33 0)">employer_id</text></g><g><path d="M -72.375,303.8125 C -113.24407148747875,303.8125 -146.375,293.06733399593907 -146.375,279.8125 C -146.375,266.55766600406093 -113.24407148747875,255.8125 -72.375,255.8125 C -31.505928512521244,255.8125 1.625,266.55766600406093 1.625,279.8125 C 1.625,293.06733399593907 -31.505928512521244,303.8125 -72.375,303.8125 Z" stroke="rgb(0,0,0)" stroke-opacity="1" stroke-width="1" stroke-linecap="butt" stroke-linejoin="miter" stroke-miterlimit="1.45" fill="none"/></g><g transform="translate(-96.875 272.8125)"><text font-family="Arial" font-size="12px" font-style="normal" font-weight="normal" text-decoration="none" text-anchor="middle" fill="rgb(0,0,0)" fill-opacity="1" dy="0.9166666666666666em" transform="translate(24.5 0)">message</text></g><g><path d="M -72.375,376.3125 C -113.24407148747875,376.3125 -146.375,365.56733399593907 -146.375,352.3125 C -146.375,339.05766600406093 -113.24407148747875,328.3125 -72.375,328.3125 C -31.505928512521244,328.3125 1.625,339.05766600406093 1.625,352.3125 C 1.625,365.56733399593907 -31.505928512521244,376.3125 -72.375,376.3125 Z" stroke="rgb(0,0,0)" stroke-opacity="1" stroke-width="1" stroke-linecap="butt" stroke-linejoin="miter" stroke-miterlimit="1.45" fill="none"/></g><g transform="translate(-85.875 345.3125)"><text font-family="Arial" font-size="12px" font-style="normal" font-weight="normal" text-decoration="none" text-anchor="middle" fill="rgb(0,0,0)" fill-opacity="1" dy="0.9166666666666666em" transform="translate(13.5 0)">state</text></g><g><path d="M -32.625,424.9375 L 115.375,424.9375 L 115.375,472.9375 L -32.625,472.9375 Z" stroke="rgb(0,0,0)" stroke-opacity="1" stroke-width="1" stroke-linecap="butt" stroke-linejoin="miter" stroke-miterlimit="1.45" fill="none"/></g><g transform="translate(18.375 441.9375)"><text font-family="Arial" font-size="12px" font-style="normal" font-weight="normal" text-decoration="none" text-anchor="middle" fill="rgb(0,0,0)" fill-opacity="1" dy="0.9166666666666666em" transform="translate(23 0)">Contract</text></g><g><path d="M -72.375,235.0625 C -113.24407148747875,235.0625 -146.375,224.31733399593907 -146.375,211.0625 C -146.375,197.80766600406093 -113.24407148747875,187.0625 -72.375,187.0625 C -31.505928512521244,187.0625 1.625,197.80766600406093 1.625,211.0625 C 1.625,224.31733399593907 -31.505928512521244,235.0625 -72.375,235.0625 Z" stroke="rgb(0,0,0)" stroke-opacity="1" stroke-width="1" stroke-linecap="butt" stroke-linejoin="miter" stroke-miterlimit="1.45" fill="none"/></g><g transform="translate(-93.875 204.0625)"><text font-family="Arial" font-size="12px" font-style="normal" font-weight="normal" text-decoration="none" text-anchor="middle" fill="rgb(0,0,0)" fill-opacity="1" dy="0.9166666666666666em" transform="translate(21.5 0)">artist_id</text></g><g><path d="M 264.25,376.3125 C 223.38092851252125,376.3125 190.25,365.56733399593907 190.25,352.3125 C 190.25,339.05766600406093 223.38092851252125,328.3125 264.25,328.3125 C 305.1190714874788,328.3125 338.25,339.05766600406093 338.25,352.3125 C 338.25,365.56733399593907 305.1190714874788,376.3125 264.25,376.3125 Z" stroke="rgb(0,0,0)" stroke-opacity="1" stroke-width="1" stroke-linecap="butt" stroke-linejoin="miter" stroke-miterlimit="1.45" fill="none"/></g><g transform="translate(234.75 345.3125)"><text font-family="Arial" font-size="12px" font-style="normal" font-weight="normal" text-decoration="none" text-anchor="middle" fill="rgb(0,0,0)" fill-opacity="1" dy="0.9166666666666666em" transform="translate(29.5 0)">experience</text></g></g></g></g><defs><path fill="rgb(0,0,0)" stroke="rgb(0,0,0)" d="M 0,0 L 8,-3 L 6,0 L 8,3 Z" fill-opacity="1" stroke-opacity="1" stroke-width="1" stroke-linecap="butt" stroke-linejoin="miter" stroke-miterlimit="10" id="ygc218_0"/><path fill="rgb(0,0,0)" stroke="rgb(0,0,0)" d="M 0,0 L 8,-3 L 6,0 L 8,3 Z" fill-opacity="1" stroke-opacity="1" stroke-width="1" stroke-linecap="butt" stroke-linejoin="miter" stroke-miterlimit="10" id="ygc218_1"/><path fill="rgb(0,0,0)" stroke="rgb(0,0,0)" d="M 0,0 L 8,-3 L 6,0 L 8,3 Z" fill-opacity="1" stroke-opacity="1" stroke-width="1" stroke-linecap="butt" stroke-linejoin="miter" stroke-miterlimit="10" id="ygc218_2"/><path fill="rgb(0,0,0)" stroke="rgb(0,0,0)" d="M 0,0 L 8,-3 L 6,0 L 8,3 Z" fill-opacity="1" stroke-opacity="1" stroke-width="1" stroke-linecap="butt" stroke-linejoin="miter" stroke-miterlimit="10" id="ygc218_3"/><path fill="rgb(0,0,0)" stroke="rgb(0,0,0)" d="M 0,0 L 8,-3 L 6,0 L 8,3 Z" fill-opacity="1" stroke-opacity="1" stroke-width="1" stroke-linecap="butt" stroke-linejoin="miter" stroke-miterlimit="10" id="ygc218_4"/><path fill="rgb(0,0,0)" stroke="rgb(0,0,0)" d="M 0,0 L 8,-3 L 6,0 L 8,3 Z" fill-opacity="1" stroke-opacity="1" stroke-width="1" stroke-linecap="butt" stroke-linejoin="miter" stroke-miterlimit="10" id="ygc218_5"/><path fill="rgb(0,0,0)" stroke="rgb(0,0,0)" d="M 0,0 L 8,-3 L 6,0 L 8,3 Z" fill-opacity="1" stroke-opacity="1" stroke-width="1" stroke-linecap="butt" stroke-linejoin="miter" stroke-miterlimit="10" id="ygc218_6"/><path fill="rgb(0,0,0)" stroke="rgb(0,0,0)" d="M 0,0 L 8,-3 L 6,0 L 8,3 Z" fill-opacity="1" stroke-opacity="1" stroke-width="1" stroke-linecap="butt" stroke-linejoin="miter" stroke-miterlimit="10" id="ygc218_7"/><path fill="rgb(0,0,0)" stroke="rgb(0,0,0)" d="M 0,0 L 8,-3 L 6,0 L 8,3 Z" fill-opacity="1" stroke-opacity="1" stroke-width="1" stroke-linecap="butt" stroke-linejoin="miter" stroke-miterlimit="10" id="ygc218_8"/><path fill="rgb(0,0,0)" stroke="rgb(0,0,0)" d="M 0,0 L 8,-3 L 6,0 L 8,3 Z" fill-opacity="1" stroke-opacity="1" stroke-width="1" stroke-linecap="butt" stroke-linejoin="miter" stroke-miterlimit="10" id="ygc218_9"/><path fill="rgb(0,0,0)" stroke="rgb(0,0,0)" d="M 0,0 L 8,-3 L 6,0 L 8,3 Z" fill-opacity="1" stroke-opacity="1" stroke-width="1" stroke-linecap="butt" stroke-linejoin="miter" stroke-miterlimit="10" id="ygc218_10"/><path d="M 10,0 L -2,8 M 10,0 L -2,0 M 10,0 L -2,-8" stroke="rgb(0,0,0)" stroke-opacity="1" stroke-width="1" stroke-linecap="butt" stroke-linejoin="miter" stroke-miterlimit="10" id="ygc218_11"/><path d="M 10,0 L -2,8 M 10,0 L -2,0 M 10,0 L -2,-8" stroke="rgb(0,0,0)" stroke-opacity="1" stroke-width="1" stroke-linecap="butt" stroke-linejoin="miter" stroke-miterlimit="10" id="ygc218_12"/><path d="M 10,0 L -2,8 M 10,0 L -2,0 M 10,0 L -2,-8" stroke="rgb(0,0,0)" stroke-opacity="1" stroke-width="1" stroke-linecap="butt" stroke-linejoin="miter" stroke-miterlimit="10" id="ygc218_13"/><path d="M 10,0 L -2,8 M 10,0 L -2,0 M 10,0 L -2,-8" stroke="rgb(0,0,0)" stroke-opacity="1" stroke-width="1" stroke-linecap="butt" stroke-linejoin="miter" stroke-miterlimit="10" id="ygc218_14"/><path d="M 10,0 L -2,8 M 10,0 L -2,0 M 10,0 L -2,-8" stroke="rgb(0,0,0)" stroke-opacity="1" stroke-width="1" stroke-linecap="butt" stroke-linejoin="miter" stroke-miterlimit="10" id="ygc218_15"/><path d="M 10,0 L -2,8 M 10,0 L -2,0 M 10,0 L -2,-8" stroke="rgb(0,0,0)" stroke-opacity="1" stroke-width="1" stroke-linecap="butt" stroke-linejoin="miter" stroke-miterlimit="10" id="ygc218_16"/></defs></svg>